{
    "asset": {
        "generator": "Khronos glTF Blender I/O v1.8.19",
        "version": "2.0"
    },
    "scene": 0,
    "scenes": [
        {
            "name": "Scene",
            "nodes": [0]
        }
    ],
    "nodes": [
        {
            "mesh": 0,
            "name": "Cube.001",
            "scale": [0.027500268071889877, 0.14333242177963257, 0.013920887373387814]
        }
    ],
    "materials": [
        {
            "doubleSided": true,
            "name": "Material.003",
            "pbrMetallicRoughness": {
                "baseColorTexture": {
                    "index": 0
                },
                "metallicFactor": 0,
                "roughnessFactor": 0.5
            }
        },
        {
            "doubleSided": true,
            "name": "Material.002",
            "pbrMetallicRoughness": {
                "baseColorFactor": [0, 0, 0, 1],
                "metallicFactor": 0,
                "roughnessFactor": 0.5
            }
        }
    ],
    "meshes": [
        {
            "name": "Cube.004",
            "primitives": [
                {
                    "attributes": {
                        "POSITION": 0,
                        "NORMAL": 1,
                        "TEXCOORD_0": 2
                    },
                    "indices": 3,
                    "material": 0
                },
                {
                    "attributes": {
                        "POSITION": 4,
                        "NORMAL": 5,
                        "TEXCOORD_0": 6
                    },
                    "indices": 7,
                    "material": 1
                }
            ]
        }
    ],
    "textures": [
        {
            "sampler": 0,
            "source": 0
        }
    ],
    "images": [
        {
            "mimeType": "image/png",
            "name": "AR-demo",
            "uri": "AR-demo.png"
        }
    ],
    "accessors": [
        {
            "bufferView": 0,
            "componentType": 5126,
            "count": 56,
            "max": [0.04622912406921387, 13.200942993164062, 72.8570785522461],
            "min": [-0.07346987724304199, -13.25784683227539, -72.8570785522461],
            "type": "VEC3"
        },
        {
            "bufferView": 1,
            "componentType": 5126,
            "count": 56,
            "type": "VEC3"
        },
        {
            "bufferView": 2,
            "componentType": 5126,
            "count": 56,
            "type": "VEC2"
        },
        {
            "bufferView": 3,
            "componentType": 5123,
            "count": 162,
            "type": "SCALAR"
        },
        {
            "bufferView": 4,
            "componentType": 5126,
            "count": 384,
            "max": [0.04622912406921387, 13.759244918823242, 78.61015319824219],
            "min": [-6.686904430389404, -13.759244918823242, -78.85205841064453],
            "type": "VEC3"
        },
        {
            "bufferView": 5,
            "componentType": 5126,
            "count": 384,
            "type": "VEC3"
        },
        {
            "bufferView": 6,
            "componentType": 5126,
            "count": 384,
            "type": "VEC2"
        },
        {
            "bufferView": 7,
            "componentType": 5123,
            "count": 654,
            "type": "SCALAR"
        }
    ],
    "bufferViews": [
        {
            "buffer": 0,
            "byteLength": 672,
            "byteOffset": 0
        },
        {
            "buffer": 0,
            "byteLength": 672,
            "byteOffset": 672
        },
        {
            "buffer": 0,
            "byteLength": 448,
            "byteOffset": 1344
        },
        {
            "buffer": 0,
            "byteLength": 324,
            "byteOffset": 1792
        },
        {
            "buffer": 0,
            "byteLength": 4608,
            "byteOffset": 2116
        },
        {
            "buffer": 0,
            "byteLength": 4608,
            "byteOffset": 6724
        },
        {
            "buffer": 0,
            "byteLength": 3072,
            "byteOffset": 11332
        },
        {
            "buffer": 0,
            "byteLength": 1308,
            "byteOffset": 14404
        }
    ],
    "samplers": [
        {
            "magFilter": 9729,
            "minFilter": 9987
        }
    ],
    "buffers": [
        {
            "byteLength": 15712,
            "uri": "untitled.bin"
        }
    ]
}
